<svg xmlns="http://www.w3.org/2000/svg" width="32" height="32" fill="none"><path fill="#39B2E7" d="M22.541 0H9.46A9.46 9.46 0 000 9.459v13.035C0 27.764 4.235 32 9.459 32H22.54c5.225 0 9.46-4.235 9.46-9.506V9.46A9.46 9.46 0 0022.541 0z"/><path fill="#fff" fill-rule="evenodd" d="M14.635 12.847c0 4.704-2.78 8.518-6.212 8.518-3.43 0-6.211-3.814-6.211-8.518 0-4.704 2.78-8.518 6.211-8.518 3.431 0 6.212 3.814 6.212 8.518zm15.153 0c0 4.704-2.78 8.518-6.212 8.518-3.43 0-6.211-3.814-6.211-8.518 0-4.704 2.78-8.518 6.212-8.518 3.43 0 6.211 3.814 6.211 8.518z" clip-rule="evenodd"/><path fill="#FBB900" d="M16 14.777l-1.93 3.717L16 21.46l1.93-2.965L16 14.777z"/><path fill="#2365AF" fill-rule="evenodd" d="M12.706 14.965a1.93 1.93 0 11-3.859 0 1.93 1.93 0 013.859 0zM9.408 31.887l.004.113C4.282 31.953.142 27.859 0 22.73c1.412.188 4.894.893 7.059 3.293 2.251 2.436 2.304 4.288 2.35 5.864zm11.816-14.993a1.93 1.93 0 100-3.859 1.93 1.93 0 000 3.86zm1.415 14.993l-.004.113c5.083-.047 9.224-4.141 9.365-9.224-1.412.189-4.847.895-7.012 3.247-2.251 2.436-2.304 4.288-2.35 5.864z" clip-rule="evenodd"/></svg>